/* XPM */
static char *dummy[]={
"32 32 242 2",
"Qt c None",
"bf c #000000",
".c c #010101",
"aj c #010101",
"#J c #020202",
"#X c #020202",
"bV c #010101",
"a5 c #020202",
".P c #040404",
"#g c #040404",
"aR c #040404",
"#. c #050505",
"a1 c #030303",
"az c #040404",
"aD c #050505",
"#4 c #060606",
"#G c #070707",
"bn c #050505",
".# c #0a0a0a",
"#F c #090909",
"#T c #090909",
".D c #0d0d0d",
"#o c #0c0c0c",
".6 c #0d0d0d",
"bS c #060606",
"a9 c #080808",
".T c #0e0e0e",
".L c #0f0f0f",
"aA c #0a0a0a",
"#p c #111111",
".v c #141414",
".r c #161616",
"bj c #0e0e0e",
"#1 c #141414",
".j c #1b1b1b",
"at c #131313",
"#u c #171717",
"bD c #0e0e0e",
"aK c #131313",
"#j c #1a1a1a",
"bu c #0f0f0f",
".d c #222222",
"as c #171717",
"a. c #191919",
"#t c #1d1d1d",
"#y c #1e1e1e",
"aG c #181818",
"ar c #191919",
".K c #232323",
"#f c #212121",
".A c #262626",
"bK c #131313",
"bC c #141414",
"aL c #1a1a1a",
".e c #2a2a2a",
"bR c #131313",
"an c #212121",
".z c #2e2e2e",
".Q c #2c2c2c",
"bE c #161616",
"a0 c #1e1e1e",
"#h c #282828",
".S c #2f2f2f",
".h c #343434",
"bx c #1a1a1a",
"aE c #212121",
"#i c #2c2c2c",
"#z c #2c2c2c",
".w c #343434",
"bL c #181818",
"bi c #1e1e1e",
"aO c #242424",
".s c #383838",
"bP c #191919",
"aF c #252525",
".k c #393939",
"au c #292929",
"bB c #1f1f1f",
"bq c #222222",
"aQ c #2a2a2a",
"bo c #232323",
".i c #424242",
".I c #3e3e3e",
"bQ c #1e1e1e",
"#E c #383838",
"ab c #323232",
"av c #323232",
".f c #4b4b4b",
"by c #252525",
"bM c #222222",
"aC c #323232",
"#B c #3d3d3d",
"aP c #313131",
"#K c #3c3c3c",
"bN c #242424",
"#S c #3d3d3d",
"#W c #3e3e3e",
"bg c #2c2c2c",
"aS c #333333",
"## c #474747",
"#n c #4a4a4a",
".p c #585858",
"bJ c #2a2a2a",
"bI c #2a2a2a",
"bG c #2b2b2b",
"#H c #4b4b4b",
"#v c #4c4c4c",
".q c #616161",
"#P c #4b4b4b",
"#I c #4f4f4f",
"ai c #484848",
"#q c #555555",
".b c #6d6d6d",
"aw c #464646",
"#C c #545454",
".n c #6c6c6c",
"aW c #434343",
"bH c #333333",
"a8 c #3e3e3e",
"aX c #444444",
".X c #686868",
".J c #6a6a6a",
".a c #767676",
"ao c #4e4e4e",
".5 c #696969",
".R c #6f6f6f",
".0 c #6e6e6e",
"#6 c #5d5d5d",
"a6 c #484848",
"am c #575757",
"ag c #585858",
"#9 c #5a5a5a",
"a4 c #4b4b4b",
"#s c #6a6a6a",
".O c #787878",
"bU c #373737",
"a2 c #4e4e4e",
"ba c #494949",
"#0 c #626262",
"bh c #474747",
".9 c #747474",
".y c #858585",
"bp c #494949",
"bT c #3b3b3b",
"bd c #4c4c4c",
"ac c #626262",
".3 c #7f7f7f",
"bm c #4c4c4c",
"aV c #585858",
"aN c #5b5b5b",
".Z c #838383",
"bA c #474747",
".H c #8d8d8d",
".x c #909090",
"aJ c #5f5f5f",
"aa c #6c6c6c",
"aY c #5c5c5c",
"#L c #747474",
"ay c #646464",
"#V c #757575",
".7 c #858585",
"bz c #4c4c4c",
"#5 c #747474",
"bc c #565656",
"af c #6d6d6d",
"bk c #555555",
"bt c #525252",
"br c #525252",
".M c #969696",
"aM c #676767",
"#Y c #7b7b7b",
"#7 c #787878",
"aB c #6e6e6e",
".Y c #999999",
"#c c #909090",
"#k c #8e8e8e",
"#d c #929292",
"aH c #6e6e6e",
"#O c #858585",
".u c #aaaaaa",
"bb c #616161",
".2 c #a1a1a1",
"ak c #7c7c7c",
"#x c #919191",
"be c #636363",
"al c #7e7e7e",
"#m c #979797",
".E c #adadad",
"#3 c #8a8a8a",
"#R c #8e8e8e",
".U c #a9a9a9",
"bw c #5b5b5b",
"#U c #8f8f8f",
"#A c #979797",
"#r c #9b9b9b",
"aU c #747474",
"ad c #838383",
"b. c #686868",
"#Q c #909090",
"#b c #a0a0a0",
".B c #b7b7b7",
".m c #bbbbbb",
"a# c #888888",
"#M c #919191",
".W c #adadad",
".C c #b9b9b9",
"aZ c #757575",
"aq c #818181",
"ah c #858585",
"#2 c #8d8d8d",
"#e c #a1a1a1",
".1 c #adadad",
".G c #b5b5b5",
".l c #bdbdbd",
"bO c #555555",
"bF c #595959",
"bv c #5d5d5d",
"bs c #616161",
"bl c #656565",
"b# c #696969",
"a7 c #6d6d6d",
"a3 c #717171",
"aT c #757575",
"aI c #797979",
"ax c #7d7d7d",
"ap c #818181",
"ae c #858585",
"#8 c #898989",
"#Z c #8e8e8e",
"#N c #929292",
"#D c #969696",
"#w c #9a9a9a",
"#l c #9e9e9e",
"#a c #a2a2a2",
".8 c #a6a6a6",
".4 c #aaaaaa",
".V c #aeaeae",
".N c #b2b2b2",
".F c #b6b6b6",
".t c #bababa",
".o c #bebebe",
".g c #c2c2c2",
"QtQtQtQtQtQtQtQtQtQtQtQtQtQtQtQtQtQtQtQtQtQtQtQtQtQtQtQtQtQtQtQt",
"QtQtQtQtQtQtQtQtQtQtQtQtQtQt.#.a.b.cQtQtQtQtQtQtQtQtQtQtQtQtQtQt",
"QtQtQtQtQtQtQtQtQt.d.eQtQtQt.f.g.g.hQtQtQt.i.jQtQtQtQtQtQtQtQtQt",
"QtQtQtQtQtQtQtQt.k.l.m.kQtQt.n.o.o.pQtQt.q.o.m.rQtQtQtQtQtQtQtQt",
"QtQtQtQtQtQtQtQt.s.t.t.u.v.w.x.t.t.y.z.A.B.t.C.DQtQtQtQtQtQtQtQt",
"QtQtQtQtQtQtQtQt.#.E.F.F.G.F.F.F.F.F.F.G.F.F.HQtQtQtQtQtQtQtQtQt",
"QtQtQtQt.I.J.KQt.L.M.N.N.N.N.N.N.N.N.N.N.N.N.O.PQt.Q.R.SQtQtQtQt",
"QtQtQt.T.U.V.W.X.Y.V.V.V.V.V.V.V.V.V.V.V.V.V.V.Z.0.1.V.2.cQtQtQt",
"QtQtQtQt.3.4.4.4.4.4.4.4.4.4.4.4.4.4.4.4.4.4.4.4.4.4.4.5QtQtQtQt",
"QtQtQtQt.6.7.8.8.8.8.8.8.8.8.8.8.8.8.8.8.8.8.8.8.8.8.9#.QtQtQtQt",
"QtQtQtQtQt###a#a#a#a#a#a#a#a#b#c#d#e#a#a#a#a#a#a#a#a#fQtQtQtQtQt",
"Qt#g#h#i#j#k#l#l#l#l#l#l#m#n#oQtQt#p#q#r#l#l#l#l#l#l#s#o#t#uQtQt",
"Qt#v#w#w#w#w#w#w#w#w#w#x#yQtQtQtQtQtQt#z#A#w#w#w#w#w#w#w#w#w#BQt",
"Qt#C#D#D#D#D#D#D#D#D#D#EQtQtQt#F#GQtQtQt#H#D#D#D#D#D#D#D#D#D#IQt",
"Qt#J#K#L#M#N#N#N#N#N#O.cQtQt#P#Q#R#SQtQt#T#U#N#N#N#N#N#M#V#W#XQt",
"QtQtQtQt#Y#Z#Z#Z#Z#Z#0QtQt#1#2#Z#Z#3#4QtQt#5#Z#Z#Z#Z#Z#6QtQtQtQt",
"QtQtQtQt#7#8#8#8#8#8#9QtQta.#8#8#8a##TQtQtaa#8#8#8#8#8#9QtQtQtQt",
"Qt#JabacadaeaeaeaeaeafQtQtQtagaeahaiQtQtajakaeaeaeaeaealamanQtQt",
"QtaoapapapapapapapapaqarQtQtQtasatQtQtQtauapapapapapapapapaqavQt",
"QtawaxaxaxaxaxaxaxaxaxayazQtQtQtQtQtQtaAaBaxaxaxaxaxaxaxaxaxaCQt",
"QtaDaEaFaGaHaIaIaIaIaIaIaJaKQtQtQtQtaLaMaIaIaIaIaIaIaNaOaPaQaRQt",
"QtQtQtQtQtaSaTaTaTaTaTaTaTaUaVaWaXaYaZaTaTaTaTaTaTaTa0QtQtQtQtQt",
"QtQtQtQta1a2a3a3a3a3a3a3a3a3a3a3a3a3a3a3a3a3a3a3a3a3a4a5QtQtQtQt",
"QtQtQtQta6a7a7a7a7a7a7a7a7a7a7a7a7a7a7a7a7a7a7a7a7a7a7a8QtQtQtQt",
"QtQtQta9b.b#b#babbb#b#b#b#b#b#b#b#b#b#b#b#b#b#bcbdb#b#bebfQtQtQt",
"QtQtQtQtbgbhbiQtbjbkblblblblblblblblblblblblbmbnQtbobpbqQtQtQtQt",
"QtQtQtQtQtQtQtQtQtbrbsbsbsbsbsbsbsbsbsbsbsbsbtQtQtQtQtQtQtQtQtQt",
"QtQtQtQtQtQtQtQtbubvbvbwbxbybzbvbvbAbBbCbwbvbvbDQtQtQtQtQtQtQtQt",
"QtQtQtQtQtQtQtQtbEbFbFbGQtQtbHbFbFbIQtQtbJbFbFbKQtQtQtQtQtQtQtQt",
"QtQtQtQtQtQtQtQtQtbLbMQtQtQtbNbObObPQtQtQtbQbRQtQtQtQtQtQtQtQtQt",
"QtQtQtQtQtQtQtQtQtQtQtQtQtQtbSbTbUbVQtQtQtQtQtQtQtQtQtQtQtQtQtQt",
"QtQtQtQtQtQtQtQtQtQtQtQtQtQtQtQtQtQtQtQtQtQtQtQtQtQtQtQtQtQtQtQt"};
